# xmcd
#
# Track frame offsets: 
#        150
#        15112
#        27527
#        40626
#        54189
#        68380
#        84244
#        102283
#        117937
#        132138
#        149353
#
# Disc length: 2198 seconds
#
# Revision: 0
# Processed by: cddbd v1.5.2PL0 Copyright (c) Steve Scherf et al.
# Submitted via: ExactAudioCopy v0.95b4
#
DISCID=7b08940b
DTITLE=Reckless Kelly - Millican
DYEAR=1998
DGENRE=Country
TTITLE0=Walton Love
TTITLE1=Back Around
TTITLE2=It's All Over
TTITLE3=I Still Do
TTITLE4=Black and White
TTITLE5=Waitin' On The Blues
TTITLE6=Hatax
TTITLE7=Hey Say May
TTITLE8=Drink Your Whiskey Down
TTITLE9=Baby's Gone Blues
TTITLE10=Time Bomb
EXTD=
EXTT0=
EXTT1=
EXTT2=
EXTT3=
EXTT4=
EXTT5=
EXTT6=
EXTT7=
EXTT8=
EXTT9=
EXTT10=
PLAYORDER=
